<mxfile host="app.diagrams.net" agent="Mozilla/5.0 (Windows NT 10.0; Win64; x64) AppleWebKit/537.36 (KHTML, like Gecko) Chrome/125.0.0.0 Safari/537.36" version="28.0.7">
  <diagram name="Page-1" id="gY-8WILyVmRyCMwF4e8z">
    <mxGraphModel dx="1123" dy="644" grid="1" gridSize="10" guides="1" tooltips="1" connect="1" arrows="1" fold="1" page="1" pageScale="1" pageWidth="827" pageHeight="1169" math="0" shadow="0">
      <root>
        <mxCell id="0" />
        <mxCell id="1" parent="0" />
        <mxCell id="3AE8S2q-jYXGuoQNdOLN-5" style="edgeStyle=orthogonalEdgeStyle;rounded=0;orthogonalLoop=1;jettySize=auto;html=1;exitX=0.5;exitY=1;exitDx=0;exitDy=0;" edge="1" parent="1" source="wv4YThMOnLRHRPxny9i_-1">
          <mxGeometry relative="1" as="geometry">
            <mxPoint x="399.8571428571429" y="120" as="targetPoint" />
          </mxGeometry>
        </mxCell>
        <mxCell id="wv4YThMOnLRHRPxny9i_-1" value="Plan" style="ellipse;whiteSpace=wrap;html=1;fontStyle=3;fontSize=19;" parent="1" vertex="1">
          <mxGeometry x="340" y="10" width="120" height="80" as="geometry" />
        </mxCell>
        <mxCell id="3AE8S2q-jYXGuoQNdOLN-7" style="edgeStyle=orthogonalEdgeStyle;rounded=0;orthogonalLoop=1;jettySize=auto;html=1;exitX=0.5;exitY=1;exitDx=0;exitDy=0;entryX=0.5;entryY=0;entryDx=0;entryDy=0;" edge="1" parent="1" source="wv4YThMOnLRHRPxny9i_-2" target="wv4YThMOnLRHRPxny9i_-3">
          <mxGeometry relative="1" as="geometry">
            <Array as="points">
              <mxPoint x="400" y="220" />
              <mxPoint x="400" y="220" />
            </Array>
          </mxGeometry>
        </mxCell>
        <mxCell id="wv4YThMOnLRHRPxny9i_-2" value="Develop" style="ellipse;whiteSpace=wrap;html=1;fontSize=18;fontStyle=1" parent="1" vertex="1">
          <mxGeometry x="340" y="130" width="120" height="80" as="geometry" />
        </mxCell>
        <mxCell id="wv4YThMOnLRHRPxny9i_-3" value="&amp;nbsp; &amp;nbsp; &amp;nbsp; &amp;nbsp;Build" style="ellipse;whiteSpace=wrap;html=1;fontStyle=1;fontSize=18;align=left;" parent="1" vertex="1">
          <mxGeometry x="340" y="240" width="120" height="70" as="geometry" />
        </mxCell>
        <mxCell id="wv4YThMOnLRHRPxny9i_-4" value="&amp;nbsp; &amp;nbsp; &amp;nbsp; &amp;nbsp;&amp;nbsp;&lt;b&gt;Test&lt;/b&gt;" style="ellipse;whiteSpace=wrap;html=1;fontSize=18;align=left;" parent="1" vertex="1">
          <mxGeometry x="340" y="350" width="120" height="80" as="geometry" />
        </mxCell>
        <mxCell id="wv4YThMOnLRHRPxny9i_-6" value="&amp;nbsp; &amp;nbsp; &amp;nbsp;Release" style="ellipse;whiteSpace=wrap;html=1;align=left;fontStyle=1;fontSize=18;" parent="1" vertex="1">
          <mxGeometry x="340" y="470" width="120" height="80" as="geometry" />
        </mxCell>
        <mxCell id="3AE8S2q-jYXGuoQNdOLN-12" value="" style="endArrow=classic;html=1;rounded=0;entryX=0.5;entryY=0;entryDx=0;entryDy=0;exitX=0.5;exitY=1;exitDx=0;exitDy=0;" edge="1" parent="1" source="wv4YThMOnLRHRPxny9i_-3" target="wv4YThMOnLRHRPxny9i_-4">
          <mxGeometry width="50" height="50" relative="1" as="geometry">
            <mxPoint x="320" y="280" as="sourcePoint" />
            <mxPoint x="370" y="230" as="targetPoint" />
          </mxGeometry>
        </mxCell>
        <mxCell id="3AE8S2q-jYXGuoQNdOLN-13" value="" style="endArrow=classic;html=1;rounded=0;entryX=0.5;entryY=0;entryDx=0;entryDy=0;exitX=0.5;exitY=1;exitDx=0;exitDy=0;" edge="1" parent="1" source="wv4YThMOnLRHRPxny9i_-4" target="wv4YThMOnLRHRPxny9i_-6">
          <mxGeometry width="50" height="50" relative="1" as="geometry">
            <mxPoint x="400" y="450" as="sourcePoint" />
            <mxPoint x="370" y="230" as="targetPoint" />
          </mxGeometry>
        </mxCell>
      </root>
    </mxGraphModel>
  </diagram>
</mxfile>
